<?xml version="1.0" encoding="utf-8"?>
<!-- Generator: Adobe Illustrator 18.1.1, SVG Export Plug-In . SVG Version: 6.00 Build 0)  -->
<svg version="1.1" id="Слой_1" xmlns="http://www.w3.org/2000/svg" xmlns:xlink="http://www.w3.org/1999/xlink" x="0px" y="0px"
	 viewBox="0 0 1067 600" enable-background="new 0 0 1067 600" xml:space="preserve">
<image overflow="visible" width="1067" height="600" xlink:href="map.jpg" >
</image>
<rect x="454.8" y="112.3" opacity="0.4" fill="#FFFFFF" width="75.5" height="62.9"/>
<rect x="608.3" y="112" display="none" opacity="0.4" fill="#FFFFFF" width="75.5" height="62"/>
<rect x="608.3" y="174" display="none" opacity="0.4" fill="#FFFFFF" width="75.5" height="62"/>
<rect x="530.3" y="112.3" opacity="0.4" fill="#FFFFFF" width="76.5" height="62.9"/>
<rect x="531" y="175.1" opacity="0.4" fill="#FFFFFF" width="75.8" height="62.9"/>
<rect x="454.8" y="175.1" opacity="0.4" fill="#FFFFFF" width="76.3" height="62.9"/>
<rect x="606.8" y="112.3" opacity="0.4" fill="#FFFFFF" width="75.5" height="62.9"/>
<rect x="682.3" y="112.3" opacity="0.4" fill="#FFFFFF" width="73.8" height="62.9"/>
<rect x="683" y="175.1" opacity="0.4" fill="#FFFFFF" width="73.8" height="62.9"/>
<rect x="606.8" y="175.1" opacity="0.4" fill="#FFFFFF" width="76.3" height="62.9"/>
<rect x="309.8" y="266.8" opacity="0.4" fill="#FFFFFF" width="75.5" height="62.9"/>
<rect x="385.3" y="266.8" opacity="0.4" fill="#FFFFFF" width="73.8" height="62.9"/>
<rect x="386" y="329.6" opacity="0.4" fill="#FFFFFF" width="73.8" height="62.9"/>
<rect x="309.8" y="329.6" opacity="0.4" fill="#FFFFFF" width="76.3" height="62.9"/>
<rect x="458.5" y="266.8" opacity="0.4" fill="#FFFFFF" width="75.5" height="62.9"/>
<rect x="534" y="266.8" opacity="0.4" fill="#FFFFFF" width="73.8" height="62.9"/>
<rect x="534.8" y="329.6" opacity="0.4" fill="#FFFFFF" width="73.8" height="62.9"/>
<rect x="458.5" y="329.6" opacity="0.4" fill="#FFFFFF" width="76.3" height="62.9"/>
<rect x="608" y="266.8" opacity="0.4" fill="#FFFFFF" width="75.5" height="62.9"/>
<rect x="683.5" y="266.8" opacity="0.4" fill="#FFFFFF" width="73.8" height="62.9"/>
<rect x="684.3" y="329.6" opacity="0.4" fill="#FFFFFF" width="73.8" height="62.9"/>
<rect x="608" y="329.6" opacity="0.4" fill="#FFFFFF" width="76.3" height="62.9"/>
<rect x="310.3" y="406.3" opacity="0.4" fill="#FFFFFF" width="75.5" height="62.9"/>
<rect x="385.8" y="406.3" opacity="0.4" fill="#FFFFFF" width="73.8" height="62.9"/>
<rect x="386.5" y="469.1" opacity="0.4" fill="#FFFFFF" width="73.8" height="62.9"/>
<rect x="310.3" y="469.1" opacity="0.4" fill="#FFFFFF" width="76.3" height="62.9"/>
<rect x="460.3" y="406.3" opacity="0.4" fill="#FFFFFF" width="75.5" height="62.9"/>
<rect x="535.8" y="406.3" opacity="0.4" fill="#FFFFFF" width="73.8" height="62.9"/>
<rect x="536.5" y="469.1" opacity="0.4" fill="#FFFFFF" width="73.8" height="62.9"/>
<rect x="460.3" y="469.1" opacity="0.4" fill="#FFFFFF" width="76.3" height="62.9"/>
<rect x="608" y="406.3" opacity="0.4" fill="#FFFFFF" width="75.5" height="62.9"/>
<rect x="683.5" y="406.3" opacity="0.4" fill="#FFFFFF" width="73.8" height="62.9"/>
<rect x="684.3" y="469.1" opacity="0.4" fill="#FFFFFF" width="73.8" height="62.9"/>
<rect x="608" y="469.1" opacity="0.4" fill="#FFFFFF" width="76.3" height="62.9"/>
</svg>
